<?xml version="1.0" encoding="UTF-8"?>
<svg id="Layer_1" data-name="Layer 1" xmlns="http://www.w3.org/2000/svg" viewBox="0 0 208.96 33.07">
  <defs>
    <style>
      .cls-1 {
        fill: #fff;
        stroke: #fff;
        stroke-miterlimit: 10;
        stroke-width: 3px;
      }
    </style>
  </defs>
  <path class="cls-1" d="m15.32,17.67h10.08c0,2.2-.47,5.36-2.45,7.88-2.12,2.7-5.36,4.03-9.03,4.03-7.06,0-12.42-5.18-12.42-12.35S7.04,4.86,14.03,4.86c3.38,0,5.65,1.15,7.52,2.59,1.01.79,1.91,1.66,2.88,3.02l-1.26,1.01c-.68-1.15-1.66-2.12-2.3-2.66-1.51-1.26-3.89-2.52-6.88-2.52-6.16,0-10.83,4.9-10.83,11.01s4.54,10.83,10.73,10.83c4.1,0,7.06-2.09,8.35-4.07.94-1.44,1.51-3.42,1.58-4.97h-8.49v-1.44Z"/>
  <path class="cls-1" d="m54.2,17.24c0,6.91-5.44,12.35-12.45,12.35s-12.45-5.44-12.45-12.35,5.44-12.38,12.45-12.38,12.45,5.47,12.45,12.38Zm-1.66,0c0-6.16-4.61-10.94-10.8-10.94s-10.8,4.79-10.8,10.94,4.61,10.91,10.8,10.91,10.8-4.79,10.8-10.91Z"/>
  <path class="cls-1" d="m63.35,6.62v22.57h-1.58V6.62h-6.23v-1.44h14.04v1.44h-6.23Z"/>
  <path class="cls-1" d="m95.82,17.41c0,6.82-5.44,12.18-12.45,12.18s-12.45-5.36-12.45-12.18,5.44-12.22,12.45-12.22,12.45,5.4,12.45,12.22Zm-1.66,0c0-6.07-4.61-10.8-10.8-10.8s-10.8,4.72-10.8,10.8,4.61,10.76,10.8,10.76,10.8-4.72,10.8-10.76Z"/>
  <path class="cls-1" d="m124.99,14.89h14.54V4.71h1.58v24.01h-1.58v-12.38h-14.54v12.38h-1.58V4.71h1.58v10.19Z"/>
  <path class="cls-1" d="m149.18,4.71v24.01h-1.58V4.71h1.58Z"/>
  <path class="cls-1" d="m155.66,28.72V4.45l20.16,21.09V4.71h1.58v24.62l-20.16-21.09v20.48h-1.58Z"/>
  <path class="cls-1" d="m196.3,20.83h-10.22l-3.2,7.88h-1.73l10.11-24.73,9.97,24.73h-1.73l-3.2-7.88Zm-.58-1.44l-4.5-11.37-4.57,11.37h9.07Z"/>
  <path class="cls-1" d="m206.13,26.3c.76,0,1.33.58,1.33,1.33s-.58,1.33-1.33,1.33-1.33-.58-1.33-1.33.58-1.33,1.33-1.33Z"/>
  <g>
    <path class="cls-1" d="m100.07,20.81c-.19.72-.43,1.42-.73,2.08,2.11,3.68,6.07,6.22,10.89,6.22,2.59,0,5.54-.83,7.99-2.99v-2.09c-2.45,2.66-5.65,3.64-8.06,3.64-3.85,0-8.38-2.34-10.09-6.86Z"/>
    <path class="cls-1" d="m110.15,4.38c-4.82,0-8.98,2.67-11.05,6.63.34.69.63,1.4.85,2.14,1.43-4.27,5.31-7.33,10.16-7.33,3.1,0,6.05,1.37,8.1,3.78v-2.09c-.72-.68-3.49-3.13-8.06-3.13Z"/>
  </g>
</svg>