<svg id="Layer_1" data-name="Layer 1" xmlns="http://www.w3.org/2000/svg" viewBox="0 0 208.96 33.07"><defs><style>.cls-1{stroke:#000;}.cls-1,.cls-2{stroke-miterlimit:10;stroke-width:3px;}.cls-2{fill:#e2b699;stroke:#e2b699;}</style></defs><path class="cls-1" d="M593.84,384.89h10.08a12.92,12.92,0,0,1-2.45,7.88,11.1,11.1,0,0,1-9,4A12,12,0,0,1,580,384.45a12.24,12.24,0,0,1,12.53-12.38,11.64,11.64,0,0,1,7.52,2.59,13.61,13.61,0,0,1,2.88,3l-1.26,1a11.36,11.36,0,0,0-2.3-2.66,10.78,10.78,0,0,0-17.71,8.5,10.59,10.59,0,0,0,10.72,10.83,10,10,0,0,0,8.35-4.07,10.8,10.8,0,0,0,1.59-5h-8.5Z" transform="translate(-578.52 -367.21)"/><path class="cls-1" d="M632.72,384.45a12.46,12.46,0,1,1-12.45-12.38A12.26,12.26,0,0,1,632.72,384.45Zm-1.66,0a10.8,10.8,0,1,0-10.79,10.91A10.66,10.66,0,0,0,631.06,384.45Z" transform="translate(-578.52 -367.21)"/><path class="cls-1" d="M641.87,373.83V396.4h-1.59V373.83h-6.22V372.4h14v1.43Z" transform="translate(-578.52 -367.21)"/><path class="cls-1" d="M674.34,384.62a12.46,12.46,0,1,1-12.46-12.22A12.18,12.18,0,0,1,674.34,384.62Zm-1.66,0a10.8,10.8,0,1,0-10.8,10.76A10.6,10.6,0,0,0,672.68,384.62Z" transform="translate(-578.52 -367.21)"/><path class="cls-2" d="M703.5,382.11h14.55V371.92h1.58v24h-1.58V383.55H703.5v12.38h-1.58v-24h1.58Z" transform="translate(-578.52 -367.21)"/><path class="cls-2" d="M727.7,371.92v24h-1.59v-24Z" transform="translate(-578.52 -367.21)"/><path class="cls-2" d="M734.18,395.93V371.67l20.15,21.09V371.92h1.59v24.62l-20.16-21.09v20.48Z" transform="translate(-578.52 -367.21)"/><path class="cls-2" d="M774.82,388.05H764.6l-3.21,7.88h-1.72l10.11-24.73,10,24.73H778Zm-.58-1.44-4.5-11.38-4.57,11.38Z" transform="translate(-578.52 -367.21)"/><path class="cls-2" d="M784.65,393.52a1.33,1.33,0,1,1-1.33,1.33A1.3,1.3,0,0,1,784.65,393.52Z" transform="translate(-578.52 -367.21)"/><path class="cls-2" d="M678.59,388a15.12,15.12,0,0,1-.74,2.08,12.39,12.39,0,0,0,10.89,6.21,12,12,0,0,0,8-3v-2.09a11.17,11.17,0,0,1-8.06,3.64A11,11,0,0,1,678.59,388Z" transform="translate(-578.52 -367.21)"/><path class="cls-2" d="M688.67,371.6a12.39,12.39,0,0,0-11,6.63,14.23,14.23,0,0,1,.85,2.14,10.64,10.64,0,0,1,18.25-3.55v-2.09A11.63,11.63,0,0,0,688.67,371.6Z" transform="translate(-578.52 -367.21)"/></svg>