<?xml version="1.0" encoding="utf-8"?>
<!-- Generator: Adobe Illustrator 26.0.3, SVG Export Plug-In . SVG Version: 6.00 Build 0)  -->
<svg version="1.0" id="katman_1" xmlns="http://www.w3.org/2000/svg" xmlns:xlink="http://www.w3.org/1999/xlink" x="0px" y="0px"
	 viewBox="0 0 600 450" style="enable-background:new 0 0 600 450;" xml:space="preserve">
<style type="text/css">
	.st0{clip-path:url(#SVGID_00000137105892350811612820000006966680723601619875_);}
</style>
<g>
	<g>
		<defs>
			<rect id="SVGID_1_" x="124.8" y="82" width="349.4" height="287"/>
		</defs>
		<clipPath id="SVGID_00000102534703876337740260000008871320545397767827_">
			<use xlink:href="#SVGID_1_"  style="overflow:visible;"/>
		</clipPath>
		<path style="clip-path:url(#SVGID_00000102534703876337740260000008871320545397767827_);" d="M203.3,92.4
			c0-5.8-4.7-10.5-10.5-10.5h-57.2c-1.6,0-2.9,1.3-2.9,2.9v74.2c0,1.6-1.3,2.9-2.9,2.9h-0.3c-1.6,0-2.9,1.3-2.9,2.9v20.4
			c0,1.6,1.3,2.9,2.9,2.9h0.3c1.6,0,2.9,1.3,2.9,2.9v61.6c0,4.1,3.3,7.5,7.5,7.5h13.6c4.1,0,7.5-3.3,7.5-7.5v-63.1
			c0-0.8,0.7-1.5,1.5-1.5h18c6.1,0,13.1,0.9,18.3-3.6c3.2-2.8,4.1-7.1,4.3-11.2C203.4,168.7,203.3,92.4,203.3,92.4L203.3,92.4z
			 M174.9,159.1c0,1.6-1.3,2.9-2.9,2.9h-7.7c-1.6,0-2.9-1.3-2.9-2.9v-49.5c0-1.6,1.3-2.9,2.9-2.9h7.7c1.6,0,2.9,1.3,2.9,2.9V159.1z
			 M381.1,177.4c-0.1-0.4-0.2-0.8-0.3-1.1c-1.4-4.5-5-7.3-8-10.7c-0.6-0.7-1.2-1.3-1.8-2c0.1,0.1,1.1-0.3,1.2-0.4
			c0.4-0.2,0.8-0.3,1.2-0.5c2.5-1.3,4.5-3.8,5.3-6.5c0.1-0.2,0.1-0.4,0.1-0.5c0.3-1.5,0.3-3.2,0.3-4.8c0-0.6,0-1.2,0-1.9
			c0-1.5,0.1-2.9,0.1-4.4l0.1-5.1c0-1.9,0-3.7,0-5.6c0-2,0-4,0-6c0-2,0-4.1,0-6.1V110c0-1.8,0-3.6,0-5.4c0-1.6,0-3.2,0-4.8
			c0-1.3,0-2.6,0-3.9c0-1,0-1.9,0-2.9v-2.1c0-5-4-9-9-9h-55c-1.7,0-3.1,1.4-3.1,3.1v64.2c0,1.7-1.4,3.1-3.1,3.1
			c-1.7,0-3.1,1.4-3.1,3.1v18.5c0,1.7,1.4,3.1,3.1,3.1c1.7,0,3.1,1.4,3.1,3.1V257c0,1.7,1.6,3.1,3.3,3.1h47.4
			c10.3,0,18.6-8.3,18.7-18.5c0,0,0-49,0-57.2C381.6,182,381.6,179.7,381.1,177.4L381.1,177.4z M339.1,108.9c0-1.7,1.4-3.1,3.1-3.1
			h7.4c1.7,0,3.1,1.4,3.1,3.1v41.5c0,1.7-1.4,3.1-3.1,3.1h-7.4c-1.7,0-3.1-1.4-3.1-3.1L339.1,108.9z M352.9,232.2
			c0,1.7-1.4,3.1-3.1,3.1h-7.6c-1.7,0-3.1-1.4-3.1-3.1v-49.5c0-1.7,1.4-3.1,3.1-3.1h7.6c1.7,0,3.1,1.4,3.1,3.1V232.2z M464.3,152.6
			h-28c-1.4,0-2.5,1.1-2.5,2.5v19.4c0,1.4,1.1,2.5,2.5,2.5h1.1c1.4,0,2.5,1.1,2.5,2.5v53.2c0,1.4-1.1,2.5-2.5,2.5h-10.1
			c-1.4,0-2.5-1.1-2.5-2.5V108.4c0-1.4,1.1-2.5,2.5-2.5h13.8c1.4,0,2.5,1.1,2.5,2.5v14.3c0,1.4,1.1,2.5,2.5,2.5H464
			c1.4,0,2.7-1.1,2.7-2.5V91c0-5-4-9-9-9h-46.7c-8.3,0-15,6.7-15,15v147.5c0,8.7,7,15.7,15.7,15.7h37.1c9.9,0,17.8-8.4,17.8-18.7
			v-86.3C466.8,153.8,465.7,152.6,464.3,152.6L464.3,152.6z M295.3,85.6c0-2-1.6-3.6-3.6-3.6h-21.3c-2,0-3.6,1.6-3.6,3.6v146
			c0,2.1-1.7,3.7-3.7,3.7h-10.4c-2.1,0-3.7-1.7-3.7-3.7v-146c0-2-1.6-3.6-3.6-3.6h-21.3c-2,0-3.6,1.6-3.6,3.6v150.9
			c0,4.9-0.1,9.8,2.4,14.1c1,1.7,2.2,3.3,3.7,4.6c0.3,0.3,0.7,0.6,1.1,0.9c0.3,0.2,0.6,0.4,0.8,0.6c0.2,0.1,0.3,0.2,0.5,0.3
			c2,1.3,4.1,2.2,6.4,2.6c1.2,0.3,2.5,0.4,3.8,0.4h37.7c1.3,0,2.5-0.1,3.8-0.4c2.3-0.5,4.5-1.4,6.4-2.6c0.2-0.1,0.3-0.2,0.5-0.3
			c0.3-0.2,0.6-0.4,0.8-0.6c0.4-0.3,0.7-0.6,1.1-0.9c1.5-1.3,2.7-2.9,3.7-4.6c2.5-4.4,2.4-9.3,2.4-14.1
			C295.3,232.6,295.3,85.6,295.3,85.6L295.3,85.6z M145.7,368.3l-0.9-4.2h-4.4l-0.9,4.2h-4.3l5-21.2h5.1l4.9,21.2H145.7z M142.7,353
			l-1.6,7.7h3.1L142.7,353z M174.4,368.3h-7.9v-21.2h7.8c3.4,0,5.3,1.8,5.3,4.9v1.5c0,2-0.8,3.6-2.9,3.9c2.3,0.5,3.1,2,3.1,3.9v2
			C179.7,366.4,177.8,368.3,174.4,368.3L174.4,368.3z M175.2,352.4c0-1-0.5-1.7-1.6-1.7h-2.5v5.4h2.4c1.2,0,1.8-0.6,1.8-1.8V352.4z
			 M175.3,361.1c0-1.2-0.6-1.9-1.8-1.9h-2.4v5.5h2.6c1.2,0,1.6-0.6,1.6-1.7V361.1z M186,368.3v-21.2h4.5v17.3h7v3.9L186,368.3
			L186,368.3z M209,368.8c-4,0-6.9-2.4-6.9-5.9v-15.8h4.6v15.7c0,1.4,0.8,2.2,2.3,2.2c1.5,0,2.4-0.8,2.4-2.2v-15.7h4.4v15.8
			C215.8,366.4,213,368.8,209,368.8L209,368.8z M222.4,368.3v-21.2h11.8v3.8H227v4.6h5v3.4h-5v5.3h7.3v4H222.4z M250,368.3v-8.5
			h-5.3v8.5h-4.5v-21.2h4.5v8.8h5.3v-8.8h4.5v21.2H250z M267.3,368.8c-4.4,0-7-2.7-7-6.5V353c0-3.7,2.6-6.5,7-6.5c4.4,0,7,2.7,7,6.5
			v9.3C274.3,366.1,271.7,368.8,267.3,368.8L267.3,368.8z M269.7,352.8c0-1.4-0.9-2.4-2.4-2.4c-1.5,0-2.4,1-2.4,2.4v9.8
			c0,1.4,0.9,2.4,2.4,2.4c1.5,0,2.4-1,2.4-2.4V352.8z M280.7,368.3v-21.2h4.5v17.3h7v3.9L280.7,368.3L280.7,368.3z M297.8,368.3
			v-21.2h11.8v3.8h-7.3v4.6h5v3.4h-5v5.3h7.3v4H297.8z M334.1,368.8c-4.5,0-7.1-2.9-7.1-6.6v-9.2c0-3.7,2.6-6.6,7.1-6.6
			c4.4,0,6.7,2.6,6.7,6.2v2.1h-4.1v-2c0-1.5-0.9-2.4-2.6-2.4c-1.7,0-2.5,1-2.5,2.4v9.9c0,1.3,0.9,2.3,2.5,2.3c1.7,0,2.6-1,2.6-2.4
			v-2h4.1v2.1C340.8,366.2,338.5,368.8,334.1,368.8L334.1,368.8z M353.6,368.8c-4.4,0-7-2.7-7-6.5V353c0-3.7,2.6-6.5,7-6.5
			c4.4,0,7,2.7,7,6.5v9.3C360.5,366.1,358,368.8,353.6,368.8L353.6,368.8z M356,352.8c0-1.4-0.9-2.4-2.4-2.4c-1.5,0-2.4,1-2.4,2.4
			v9.8c0,1.4,0.9,2.4,2.4,2.4c1.5,0,2.4-1,2.4-2.4V352.8z M381.2,368.3v-15l-1,4.8l-2.5,10.2h-3.4l-2.4-10.2l-1-4.8v15h-4.1v-21.2
			h6.1l2.6,10.8l0.8,3.7l0.8-3.7l2.5-10.8h6.1v21.2H381.2z M399.8,360.4h-3.1v7.9h-4.5v-21.2h7.7c3.6,0,5.4,2.1,5.4,5.2v2.9
			C405.3,358.3,403.4,360.4,399.8,360.4L399.8,360.4z M400.9,352.4c0-1.1-0.5-1.8-1.6-1.8h-2.6v6.4h2.6c1.2,0,1.6-0.6,1.6-1.8V352.4
			z M419.3,368.3l-0.9-4.2H414l-0.9,4.2h-4.3l5-21.2h5.1l4.9,21.2H419.3z M416.3,353l-1.6,7.7h3.1L416.3,353z M439.7,368.3l-4.7-8.5
			l-1.8-3.5v11.9h-4.2v-21.2h3.8l4.5,8.7l1.7,3.5v-12.1h4.1v21.2L439.7,368.3z M458.3,359.5v8.8h-4.5v-8.8l-5.5-12.4h4.8l3.2,8.4
			l3.1-8.4h4.5L458.3,359.5z M159.8,291.6c-4.6,0-7.8,2.9-7.8,7.2v9.8c0,4.3,3.1,7.2,7.8,7.2c4.5,0,7.3-2.6,7.3-6.8v-2.4h-4.7v2.3
			c0,1.6-0.9,2.4-2.6,2.4s-2.6-0.9-2.6-2.4v-10.6c0-1.5,1-2.4,2.6-2.4c1.6,0,2.6,0.9,2.6,2.4v2.3h4.7v-2.4
			C167.2,294.2,164.4,291.6,159.8,291.6L159.8,291.6z M188.9,291.6c-2.3,0-4.2,0.7-5.6,2c-1.3,1.3-2,3-2,5.1v10c0,4.3,3,7.1,7.6,7.1
			c4.6,0,7.6-2.8,7.6-7.1v-10C196.5,294.4,193.5,291.6,188.9,291.6L188.9,291.6z M191.3,298.4v10.5c0,1.5-0.9,2.4-2.4,2.4
			c-1.5,0-2.4-0.9-2.4-2.4v-10.5c0-1.5,0.9-2.4,2.4-2.4S191.3,296.9,191.3,298.4L191.3,298.4z M225,300.6v-2.7c0-3.6-2.3-5.7-6-5.7
			h-8.4v23h5.2v-8.9h1.2l3.2,8.9h5.4l-3.7-9.5C223.9,304.9,225,303.2,225,300.6L225,300.6z M215.7,296.3h2.7c1.1,0,1.6,0.5,1.6,1.7
			v2.7c0,1.2-0.6,1.8-1.8,1.8h-2.5V296.3z M247.8,292.2h-8.4v23h5.2v-8.4h3.2c3.7,0,6-2.2,6-5.7v-3.1
			C253.8,294.3,251.5,292.2,247.8,292.2L247.8,292.2z M244.6,296.3h2.6c1.1,0,1.6,0.6,1.6,1.8v3c0,1.2-0.5,1.8-1.6,1.8h-2.6V296.3z
			 M275.3,291.6c-2.3,0-4.2,0.7-5.6,2c-1.3,1.3-2,3-2,5.1v10c0,4.3,3,7.1,7.6,7.1c4.6,0,7.6-2.8,7.6-7.1v-10
			C283,294.4,280,291.6,275.3,291.6L275.3,291.6z M277.8,298.4v10.5c0,1.5-0.9,2.4-2.4,2.4c-1.5,0-2.4-0.9-2.4-2.4v-10.5
			c0-1.5,0.9-2.4,2.4-2.4C276.8,296,277.8,296.9,277.8,298.4L277.8,298.4z M312.1,300.6v-2.7c0-3.6-2.3-5.7-6-5.7h-8.4v23h5.2v-8.9
			h1.2l3.2,8.9h5.4l-3.7-9.5C311.1,304.9,312.1,303.2,312.1,300.6L312.1,300.6z M302.8,296.3h2.7c1.1,0,1.6,0.5,1.6,1.7v2.7
			c0,1.2-0.6,1.8-1.8,1.8h-2.5V296.3z M330.4,292.2l-5.4,23h4.9l1-4.5h4.5l1,4.5h5.2l-5.4-23H330.4z M334.6,306.8h-3l1.6-7.4
			L334.6,306.8z M352.4,296.6h4.9v18.6h5.2v-18.6h4.9v-4.5h-15L352.4,296.6L352.4,296.6z M381.1,292.2h5.2v23h-5.2V292.2z
			 M408.7,291.6c-2.3,0-4.2,0.7-5.6,2c-1.3,1.3-2,3-2,5.1v10c0,4.3,3,7.1,7.6,7.1c4.6,0,7.6-2.8,7.6-7.1v-10
			C416.3,294.4,413.3,291.6,408.7,291.6L408.7,291.6z M411.1,298.4v10.5c0,1.5-0.9,2.4-2.4,2.4c-1.5,0-2.4-0.9-2.4-2.4v-10.5
			c0-1.5,0.9-2.4,2.4-2.4C410.2,296,411.1,296.9,411.1,298.4L411.1,298.4z M441.8,292.2v12.6l-1.6-3.2l-4.9-9.4H431v23h4.8v-12.4
			l1.7,3.2l5.1,9.2h4v-23H441.8z M441.8,292.2"/>
	</g>
	<path d="M474,290.2v-6.2h-4.5v-10.6H129.3v10.6h-4.5v6.2h4.5v26.8h-4.5v6.2h4.5v10.7h340.2v-10.7h4.5v-6.2h-4.5v-26.8L474,290.2z
		 M463.4,327.7H135.5v-48.2h327.9L463.4,327.7L463.4,327.7z M463.4,327.7"/>
</g>
</svg>
